<svg xmlns="http://www.w3.org/2000/svg" viewBox="0 0 96 128">
  <defs>
    <linearGradient id="sakura4Fill" x1="0.2" y1="0" x2="1" y2="1">
      <stop offset="0%" stop-color="#ffebf3"/>
      <stop offset="55%" stop-color="#ffbbd7"/>
      <stop offset="100%" stop-color="#ff86b7"/>
    </linearGradient>
  </defs>
  <path d="M48 7C61 12 72 26 78 44C84 62 82 84 71 101C64 114 56 122 48 123C39 122 31 114 24 101C13 84 11 62 18 44C24 26 35 12 48 7Z" fill="url(#sakura4Fill)" stroke="#ea5f9a" stroke-width="2"/>
  <path d="M47.3 12C44.2 19 42.7 24.5 44.6 29.2C45.8 32.1 46.9 33.8 48 35.4C49.1 33.8 50.2 32.1 51.4 29.2C53.3 24.5 51.8 19 48.7 12C48.4 11.2 47.6 11.2 47.3 12Z" fill="#ffe9f2" opacity="0.86"/>
  <path d="M30 53C35 49 41 47 48 46C55 47 61 49 66 53" fill="none" stroke="#ffb8d3" stroke-width="1.8" stroke-linecap="round" opacity="0.72"/>
  <path d="M48 22C54 38 54 56 51 75C49 92 48 105 48 116" fill="none" stroke="#f06ea4" stroke-width="2" stroke-linecap="round" opacity="0.72"/>
</svg>
