<svg xmlns="http://www.w3.org/2000/svg" viewBox="0 0 96 128">
  <defs>
    <linearGradient id="sakura8Fill" x1="0.14" y1="0" x2="0.92" y2="1">
      <stop offset="0%" stop-color="#fff7fb"/>
      <stop offset="57%" stop-color="#ffe4ee"/>
      <stop offset="100%" stop-color="#ffccdc"/>
    </linearGradient>
    <radialGradient id="sakura8Shine" cx="46" cy="52" r="27" gradientUnits="userSpaceOnUse">
      <stop offset="0%" stop-color="#ffffff" stop-opacity="0.54"/>
      <stop offset="100%" stop-color="#ffffff" stop-opacity="0"/>
    </radialGradient>
  </defs>
  <path d="M48 9C60 14 72 30 78 49C84 68 82 89 70 105C64 115 56 122 48 123C39 122 32 115 26 105C14 89 12 68 18 49C24 30 36 14 48 9Z" fill="url(#sakura8Fill)" stroke="#e0a1b6" stroke-width="2"/>
  <path d="M47.2 12C44.4 18.9 42.9 24.4 44.8 29.1C46 32.1 46.9 33.8 48 35.4C49.1 33.8 50 32.1 51.2 29.1C53.1 24.4 51.6 18.9 48.8 12C48.5 11.2 47.5 11.2 47.2 12Z" fill="#fffbff" opacity="0.85"/>
  <path d="M48 22C53.2 37.2 53.4 55.6 50.8 74.6C49.1 89.4 48.4 102.5 48 114.5" fill="none" stroke="#eda9bf" stroke-width="2" stroke-linecap="round" opacity="0.75"/>
  <ellipse cx="46" cy="52" rx="21" ry="14" fill="url(#sakura8Shine)"/>
</svg>
